<svg width="1600" height="1600" viewBox="0 0 1600 1600" fill="none" xmlns="http://www.w3.org/2000/svg">
<rect width="1600" height="1600" fill="#EFEA5A"/>
<path d="M551.04 1009.36C505.592 1031.91 454.034 1039.03 404.176 1029.64C354.317 1020.26 308.876 994.881 274.736 957.353C240.596 919.825 219.617 872.192 214.978 821.671C210.339 771.15 222.292 720.494 249.027 677.376C275.762 634.258 315.821 601.028 363.136 582.721C410.452 564.414 462.445 562.027 511.239 575.921C560.033 589.816 602.969 619.235 633.542 659.721C664.115 700.208 680.66 749.556 680.67 800.29V839.179C680.67 856.369 673.841 872.855 661.686 885.01C649.531 897.165 633.045 903.994 615.855 903.994C598.665 903.994 582.179 897.165 570.023 885.01C557.868 872.855 551.04 856.369 551.04 839.179V696.585M551.04 800.29C551.04 827.794 540.114 854.172 520.665 873.62C501.217 893.068 474.839 903.994 447.335 903.994C419.831 903.994 393.453 893.068 374.005 873.62C354.557 854.172 343.631 827.794 343.631 800.29C343.631 772.786 354.557 746.408 374.005 726.96C393.453 707.511 419.831 696.585 447.335 696.585C474.839 696.585 501.217 707.511 520.665 726.96C540.114 746.408 551.04 772.786 551.04 800.29Z" stroke="black" stroke-width="50" stroke-linecap="round" stroke-linejoin="round"/>
<path fill-rule="evenodd" clip-rule="evenodd" d="M1252.67 567H919.333C845.695 567 786 626.695 786 700.333V900.333C786 973.97 845.695 1033.67 919.333 1033.67H1252.67C1326.3 1033.67 1386 973.97 1386 900.333V700.333C1386 626.695 1326.3 567 1252.67 567Z" stroke="black" stroke-width="50" stroke-linecap="round" stroke-linejoin="round"/>
<path d="M1000.31 728.319C1013.48 732.455 1027.52 725.129 1031.65 711.956C1035.79 698.783 1028.46 684.751 1015.29 680.615L1000.31 728.319ZM980.733 700.333L980.704 675.333C980.483 675.334 980.262 675.337 980.041 675.343L980.733 700.333ZM886 800.333L910.991 800.993C911.003 800.553 911.003 800.113 910.991 799.673L886 800.333ZM980.733 900.333L980.041 925.323C980.262 925.33 980.483 925.333 980.704 925.333L980.733 900.333ZM1007.8 896.2L1015.29 920.053C1015.46 920 1015.63 919.943 1015.8 919.887L1007.8 896.2ZM1075.47 800.333L1100.46 799.933C1100.25 786.283 1089.12 775.333 1075.47 775.333V800.333ZM980.733 775.333C966.926 775.333 955.733 786.527 955.733 800.333C955.733 814.14 966.926 825.333 980.733 825.333V775.333ZM1113.63 900.333C1113.63 914.14 1124.83 925.333 1138.63 925.333C1152.44 925.333 1163.63 914.14 1163.63 900.333H1113.63ZM1163.63 700.333C1163.63 686.526 1152.44 675.333 1138.63 675.333C1124.83 675.333 1113.63 686.526 1113.63 700.333H1163.63ZM1218.9 900.333C1218.9 914.14 1230.09 925.333 1243.9 925.333C1257.71 925.333 1268.9 914.14 1268.9 900.333H1218.9ZM1268.9 789.233C1268.9 775.427 1257.71 764.233 1243.9 764.233C1230.09 764.233 1218.9 775.427 1218.9 789.233H1268.9ZM1218.9 789.233C1218.9 803.04 1230.09 814.233 1243.9 814.233C1257.71 814.233 1268.9 803.04 1268.9 789.233H1218.9ZM1243.9 744.767H1268.9C1268.9 744.553 1268.9 744.337 1268.89 744.123L1243.9 744.767ZM1286.7 725.324C1300.5 724.935 1311.38 713.432 1310.99 699.63C1310.6 685.829 1299.1 674.955 1285.3 675.343L1286.7 725.324ZM1243.9 814.233C1257.71 814.233 1268.9 803.04 1268.9 789.233C1268.9 775.427 1257.71 764.233 1243.9 764.233V814.233ZM1201.8 764.233C1187.99 764.233 1176.8 775.427 1176.8 789.233C1176.8 803.04 1187.99 814.233 1201.8 814.233V764.233ZM1243.9 764.233C1230.09 764.233 1218.9 775.427 1218.9 789.233C1218.9 803.04 1230.09 814.233 1243.9 814.233V764.233ZM1286 814.233C1299.81 814.233 1311 803.04 1311 789.233C1311 775.427 1299.81 764.233 1286 764.233V814.233ZM1015.29 680.615C1004.1 677.101 992.434 675.32 980.704 675.333L980.763 725.333C987.393 725.326 993.985 726.332 1000.31 728.319L1015.29 680.615ZM980.041 675.343C912.494 677.214 859.226 733.443 861.009 800.993L910.991 799.673C909.937 759.703 941.456 726.431 981.426 725.324L980.041 675.343ZM861.009 799.673C859.226 867.223 912.494 923.453 980.041 925.323L981.426 875.343C941.456 874.237 909.937 840.963 910.991 800.993L861.009 799.673ZM980.704 925.333C992.434 925.347 1004.1 923.567 1015.29 920.053L1000.31 872.347C993.985 874.333 987.393 875.34 980.763 875.333L980.704 925.333ZM1015.8 919.887C1067.1 902.57 1101.33 854.077 1100.46 799.933L1050.47 800.733C1050.99 833.133 1030.51 862.15 999.805 872.513L1015.8 919.887ZM1075.47 775.333H980.733V825.333H1075.47V775.333ZM1163.63 900.333V700.333H1113.63V900.333H1163.63ZM1268.9 900.333V789.233H1218.9V900.333H1268.9ZM1268.9 789.233V744.767H1218.9V789.233H1268.9ZM1268.89 744.123C1268.63 734.017 1276.6 725.608 1286.7 725.324L1285.3 675.343C1247.63 676.403 1217.94 707.747 1218.91 745.41L1268.89 744.123ZM1243.9 764.233H1201.8V814.233H1243.9V764.233ZM1243.9 814.233H1286V764.233H1243.9V814.233Z" fill="black"/>
</svg>
